<?xml version="1.0" encoding="UTF-8"?>
<!DOCTYPE svg PUBLIC "-//W3C//DTD SVG 1.1//EN" "http://www.w3.org/Graphics/SVG/1.1/DTD/svg11.dtd">
<svg version="1.1" xmlns="http://www.w3.org/2000/svg" xmlns:xlink="http://www.w3.org/1999/xlink" x="0" y="0" width="280" height="420" viewBox="0, 0, 280, 420">
  <g id="body">
    <path d="M19.667,15 L259.667,15 C262.98,15 265.667,17.686 265.667,21 L265.667,401 C265.667,404.314 262.98,407 259.667,407 L19.667,407 C16.353,407 13.667,404.314 13.667,401 L13.667,21 C13.667,17.686 16.353,15 19.667,15 z" fill="#DCDCDC"/>
    <path d="M24.929,20 L255.405,20 C258.587,20 261.167,22.618 261.167,25.847 L261.167,396.153 C261.167,399.382 258.587,402 255.405,402 L24.929,402 C21.746,402 19.167,399.382 19.167,396.153 L19.167,25.847 C19.167,22.618 21.746,20 24.929,20 z" fill="#F5F4F4"/>
  </g>
  <g id="parts">
    <g>
      <path d="M242.417,37 C239.241,37 236.667,34.426 236.667,31.25 C236.667,28.074 239.241,25.5 242.417,25.5 C245.592,25.5 248.167,28.074 248.167,31.25 C248.167,34.426 245.592,37 242.417,37 z" fill="#B0B0B0"/>
      <g>
        <path d="M242.917,34.25 C241.536,34.25 240.417,33.131 240.417,31.75 C240.417,30.369 241.536,29.25 242.917,29.25 C244.297,29.25 245.417,30.369 245.417,31.75 C245.417,33.131 244.297,34.25 242.917,34.25 z" fill="#EAE8E8"/>
        <path d="M242.917,34.25 C241.536,34.25 240.417,33.131 240.417,31.75 C240.417,30.369 241.536,29.25 242.917,29.25 C244.297,29.25 245.417,30.369 245.417,31.75 C245.417,33.131 244.297,34.25 242.917,34.25 z" fill-opacity="0" stroke="#777676" stroke-width="1"/>
      </g>
    </g>
    <g>
      <path d="M242.417,393.5 C239.241,393.5 236.667,390.926 236.667,387.75 C236.667,384.574 239.241,382 242.417,382 C245.592,382 248.167,384.574 248.167,387.75 C248.167,390.926 245.592,393.5 242.417,393.5 z" fill="#B0B0B0"/>
      <g>
        <path d="M242.917,390.75 C241.536,390.75 240.417,389.631 240.417,388.25 C240.417,386.869 241.536,385.75 242.917,385.75 C244.297,385.75 245.417,386.869 245.417,388.25 C245.417,389.631 244.297,390.75 242.917,390.75 z" fill="#EAE8E8"/>
        <path d="M242.917,390.75 C241.536,390.75 240.417,389.631 240.417,388.25 C240.417,386.869 241.536,385.75 242.917,385.75 C244.297,385.75 245.417,386.869 245.417,388.25 C245.417,389.631 244.297,390.75 242.917,390.75 z" fill-opacity="0" stroke="#777676" stroke-width="1"/>
      </g>
    </g>
    <g>
      <path d="M34.917,393.5 C31.741,393.5 29.167,390.926 29.167,387.75 C29.167,384.574 31.741,382 34.917,382 C38.092,382 40.667,384.574 40.667,387.75 C40.667,390.926 38.092,393.5 34.917,393.5 z" fill="#B0B0B0"/>
      <g>
        <path d="M35.417,390.75 C34.036,390.75 32.917,389.631 32.917,388.25 C32.917,386.869 34.036,385.75 35.417,385.75 C36.797,385.75 37.917,386.869 37.917,388.25 C37.917,389.631 36.797,390.75 35.417,390.75 z" fill="#EAE8E8"/>
        <path d="M35.417,390.75 C34.036,390.75 32.917,389.631 32.917,388.25 C32.917,386.869 34.036,385.75 35.417,385.75 C36.797,385.75 37.917,386.869 37.917,388.25 C37.917,389.631 36.797,390.75 35.417,390.75 z" fill-opacity="0" stroke="#777676" stroke-width="1"/>
      </g>
    </g>
    <g>
      <path d="M34.917,37 C31.741,37 29.167,34.426 29.167,31.25 C29.167,28.074 31.741,25.5 34.917,25.5 C38.092,25.5 40.667,28.074 40.667,31.25 C40.667,34.426 38.092,37 34.917,37 z" fill="#B0B0B0"/>
      <g>
        <path d="M35.417,34.25 C34.036,34.25 32.917,33.131 32.917,31.75 C32.917,30.369 34.036,29.25 35.417,29.25 C36.797,29.25 37.917,30.369 37.917,31.75 C37.917,33.131 36.797,34.25 35.417,34.25 z" fill="#EAE8E8"/>
        <path d="M35.417,34.25 C34.036,34.25 32.917,33.131 32.917,31.75 C32.917,30.369 34.036,29.25 35.417,29.25 C36.797,29.25 37.917,30.369 37.917,31.75 C37.917,33.131 36.797,34.25 35.417,34.25 z" fill-opacity="0" stroke="#777676" stroke-width="1"/>
      </g>
    </g>
    <g>
      <path d="M184.667,295.5 C173.897,295.5 165.167,286.77 165.167,276 C165.167,265.23 173.897,256.5 184.667,256.5 C195.436,256.5 204.167,265.23 204.167,276 C204.167,286.77 195.436,295.5 184.667,295.5 z" fill="#FA6565"/>
      <g>
        <path d="M185.167,294.125 C175.433,294.125 167.542,286.234 167.542,276.5 C167.542,266.766 175.433,258.875 185.167,258.875 C194.901,258.875 202.792,266.766 202.792,276.5 C202.792,286.234 194.901,294.125 185.167,294.125 z" fill="#DC4040"/>
        <path d="M185.167,294.125 C175.433,294.125 167.542,286.234 167.542,276.5 C167.542,266.766 175.433,258.875 185.167,258.875 C194.901,258.875 202.792,266.766 202.792,276.5 C202.792,286.234 194.901,294.125 185.167,294.125 z" fill-opacity="0" stroke="#B71E1E" stroke-width="1"/>
      </g>
    </g>
    <g>
      <path d="M229.667,277 C218.897,277 210.167,268.27 210.167,257.5 C210.167,246.73 218.897,238 229.667,238 C240.436,238 249.167,246.73 249.167,257.5 C249.167,268.27 240.436,277 229.667,277 z" fill="#FA6565"/>
      <g>
        <path d="M230.167,275.625 C220.433,275.625 212.542,267.734 212.542,258 C212.542,248.266 220.433,240.375 230.167,240.375 C239.901,240.375 247.792,248.266 247.792,258 C247.792,267.734 239.901,275.625 230.167,275.625 z" fill="#DC4040"/>
        <path d="M230.167,275.625 C220.433,275.625 212.542,267.734 212.542,258 C212.542,248.266 220.433,240.375 230.167,240.375 C239.901,240.375 247.792,248.266 247.792,258 C247.792,267.734 239.901,275.625 230.167,275.625 z" fill-opacity="0" stroke="#B71E1E" stroke-width="1"/>
      </g>
    </g>
    <g>
      <path d="M71.174,203.125 L95.883,203.125 C101.689,203.125 106.397,207.703 106.397,213.35 L106.397,226.642 C105.477,232.827 106.791,231.25 100.088,239.267 C91.94,248.73 87.605,254.25 83.791,254.25 C79.98,254.25 78.403,251.621 68.02,240.056 C59.872,231.521 61.449,233.353 60.66,226.642 L60.66,213.35 C60.66,207.703 65.368,203.125 71.174,203.125 z" fill="#585858"/>
      <g>
        <path d="M72.955,206.122 L94.839,206.122 C99.982,206.122 104.151,210.241 104.151,215.322 L104.151,227.282 C103.336,232.847 104.5,231.428 98.564,238.641 C91.347,247.155 87.507,252.122 84.13,252.122 C80.754,252.121 79.357,249.756 70.162,239.35 C62.945,231.671 64.342,233.32 63.643,227.282 L63.643,215.322 C63.643,210.241 67.812,206.122 72.955,206.122 z" fill="#484848"/>
        <path d="M72.955,206.122 L94.839,206.122 C99.982,206.122 104.151,210.241 104.151,215.322 L104.151,227.282 C103.336,232.847 104.5,231.428 98.564,238.641 C91.347,247.155 87.507,252.122 84.13,252.122 C80.754,252.121 79.357,249.756 70.162,239.35 C62.945,231.671 64.342,233.32 63.643,227.282 L63.643,215.322 C63.643,210.241 67.812,206.122 72.955,206.122 z" fill-opacity="0" stroke="#373737" stroke-width="1"/>
      </g>
    </g>
    <g>
      <path d="M96.883,316.75 L72.174,316.75 C66.368,316.75 61.66,312.172 61.66,306.525 L61.66,293.233 C62.58,287.048 61.266,288.625 67.969,280.608 C76.117,271.145 80.452,265.625 84.266,265.625 C88.077,265.625 89.654,268.254 100.037,279.819 C108.185,288.354 106.608,286.522 107.397,293.233 L107.397,306.525 C107.397,312.172 102.689,316.75 96.883,316.75 z" fill="#585858"/>
      <g>
        <path d="M96.102,314.753 L74.218,314.753 C69.075,314.753 64.906,310.634 64.906,305.553 L64.906,293.593 C65.721,288.028 64.557,289.447 70.493,282.234 C77.71,273.72 81.549,268.753 84.927,268.754 C88.303,268.754 89.7,271.119 98.895,281.525 C106.112,289.204 104.715,287.555 105.414,293.593 L105.414,305.553 C105.414,310.634 101.245,314.753 96.102,314.753 z" fill="#484848"/>
        <path d="M96.102,314.753 L74.218,314.753 C69.075,314.753 64.906,310.634 64.906,305.553 L64.906,293.593 C65.721,288.028 64.557,289.447 70.493,282.234 C77.71,273.72 81.549,268.753 84.927,268.754 C88.303,268.754 89.7,271.119 98.895,281.525 C106.112,289.204 104.715,287.555 105.414,293.593 L105.414,305.553 C105.414,310.634 101.245,314.753 96.102,314.753 z" fill-opacity="0" stroke="#373737" stroke-width="1"/>
      </g>
    </g>
    <g>
      <path d="M140.111,247.896 L140.111,272.604 C140.111,278.411 135.533,283.118 129.886,283.118 L116.593,283.118 C110.408,282.198 111.986,283.513 103.969,276.81 C94.506,268.661 88.986,264.326 88.986,260.513 C88.986,256.701 91.614,255.124 103.18,244.742 C111.715,236.593 109.883,238.17 116.593,237.382 L129.886,237.382 C135.533,237.382 140.111,242.089 140.111,247.896 z" fill="#585858"/>
      <g>
        <path d="M138.114,249.677 L138.114,271.56 C138.114,276.703 133.995,280.872 128.914,280.872 L116.954,280.872 C111.389,280.058 112.808,281.222 105.595,275.285 C97.081,268.068 92.114,264.229 92.114,260.851 C92.114,257.476 94.479,256.079 104.885,246.883 C112.565,239.666 110.916,241.063 116.954,240.365 L128.914,240.365 C133.995,240.365 138.114,244.534 138.114,249.677 z" fill="#484848"/>
        <path d="M138.114,249.677 L138.114,271.56 C138.114,276.703 133.995,280.872 128.914,280.872 L116.954,280.872 C111.389,280.058 112.808,281.222 105.595,275.285 C97.081,268.068 92.114,264.229 92.114,260.851 C92.114,257.476 94.479,256.079 104.885,246.883 C112.565,239.666 110.916,241.063 116.954,240.365 L128.914,240.365 C133.995,240.365 138.114,244.534 138.114,249.677 z" fill-opacity="0" stroke="#373737" stroke-width="1"/>
      </g>
    </g>
    <g>
      <path d="M26.417,272.604 L26.417,247.896 C26.417,242.089 30.994,237.382 36.642,237.382 L49.934,237.382 C56.119,238.302 54.542,236.987 62.559,243.69 C72.022,251.839 77.542,256.174 77.542,259.987 C77.542,263.799 74.913,265.376 63.347,275.758 C54.812,283.907 56.645,282.33 49.934,283.118 L36.642,283.118 C30.994,283.118 26.417,278.411 26.417,272.604 z" fill="#585858"/>
      <g>
        <path d="M29.414,271.823 L29.414,249.94 C29.414,244.797 33.533,240.628 38.614,240.628 L50.573,240.628 C56.138,241.442 54.719,240.278 61.932,246.215 C70.447,253.432 75.413,257.271 75.413,260.649 C75.413,264.024 73.048,265.421 62.642,274.617 C54.962,281.834 56.611,280.437 50.573,281.135 L38.614,281.135 C33.533,281.135 29.414,276.966 29.414,271.823 z" fill="#484848"/>
        <path d="M29.414,271.823 L29.414,249.94 C29.414,244.797 33.533,240.628 38.614,240.628 L50.573,240.628 C56.138,241.442 54.719,240.278 61.932,246.215 C70.447,253.432 75.413,257.271 75.413,260.649 C75.413,264.024 73.048,265.421 62.642,274.617 C54.962,281.834 56.611,280.437 50.573,281.135 L38.614,281.135 C33.533,281.135 29.414,276.966 29.414,271.823 z" fill-opacity="0" stroke="#373737" stroke-width="1"/>
      </g>
    </g>
    <path d="M187.667,178 L234.667,178 C235.771,178 236.667,178.895 236.667,180 L236.667,218.5 C236.667,219.605 235.771,220.5 234.667,220.5 L187.667,220.5 C186.562,220.5 185.667,219.605 185.667,218.5 L185.667,180 C185.667,178.895 186.562,178 187.667,178 z" fill="#DFDFDF"/>
    <path d="M92.486,178 L103.986,178 C105.09,178 105.986,178.895 105.986,180 L105.986,181.5 C105.986,182.605 105.09,183.5 103.986,183.5 L92.486,183.5 C91.381,183.5 90.486,182.605 90.486,181.5 L90.486,180 C90.486,178.895 91.381,178 92.486,178 z" fill="#DFDFDF"/>
    <path d="M110.298,178 L121.798,178 C122.903,178 123.798,178.895 123.798,180 L123.798,181.5 C123.798,182.605 122.903,183.5 121.798,183.5 L110.298,183.5 C109.194,183.5 108.298,182.605 108.298,181.5 L108.298,180 C108.298,178.895 109.194,178 110.298,178 z" fill="#DFDFDF"/>
    <path d="M128.111,178 L139.611,178 C140.715,178 141.611,178.895 141.611,180 L141.611,181.5 C141.611,182.605 140.715,183.5 139.611,183.5 L128.111,183.5 C127.006,183.5 126.111,182.605 126.111,181.5 L126.111,180 C126.111,178.895 127.006,178 128.111,178 z" fill="#DFDFDF"/>
    <path d="M146.167,178 L157.667,178 C158.771,178 159.667,178.895 159.667,180 L159.667,181.5 C159.667,182.605 158.771,183.5 157.667,183.5 L146.167,183.5 C145.062,183.5 144.167,182.605 144.167,181.5 L144.167,180 C144.167,178.895 145.062,178 146.167,178 z" fill="#DFDFDF"/>
    <path d="M164.57,178 L176.07,178 C177.175,178 178.07,178.895 178.07,180 L178.07,181.5 C178.07,182.605 177.175,183.5 176.07,183.5 L164.57,183.5 C163.466,183.5 162.57,182.605 162.57,181.5 L162.57,180 C162.57,178.895 163.466,178 164.57,178 z" fill="#DFDFDF"/>
    <g>
      <path d="M183.852,345.258 L203.745,323.475 C204.49,322.659 205.755,322.602 206.571,323.347 L228.354,343.241 C229.169,343.985 229.227,345.25 228.482,346.066 L208.588,367.849 C207.843,368.664 206.578,368.722 205.762,367.977 L183.98,348.083 C183.164,347.338 183.107,346.073 183.852,345.258 z" fill="#DFDFDF"/>
      <path d="M201.167,311.75 L212.667,311.75 C213.771,311.75 214.667,312.645 214.667,313.75 L214.667,315.25 C214.667,316.355 213.771,317.25 212.667,317.25 L201.167,317.25 C200.062,317.25 199.167,316.355 199.167,315.25 L199.167,313.75 C199.167,312.645 200.062,311.75 201.167,311.75 z" fill="#DFDFDF"/>
      <path d="M178.656,325.468 L186.788,317.336 C187.569,316.555 188.835,316.555 189.616,317.336 L190.677,318.397 C191.458,319.178 191.458,320.444 190.677,321.225 L182.545,329.357 C181.764,330.138 180.498,330.138 179.717,329.357 L178.656,328.296 C177.875,327.515 177.875,326.249 178.656,325.468 z" fill="#DFDFDF"/>
      <path d="M221.06,367.275 L229.192,359.143 C229.973,358.362 231.239,358.362 232.02,359.143 L233.081,360.204 C233.862,360.985 233.862,362.251 233.081,363.033 L224.949,371.164 C224.168,371.945 222.902,371.945 222.121,371.164 L221.06,370.104 C220.279,369.323 220.279,368.056 221.06,367.275 z" fill="#DFDFDF"/>
      <path d="M200.167,374.404 L211.667,374.404 C212.771,374.404 213.667,375.299 213.667,376.404 L213.667,377.904 C213.667,379.008 212.771,379.904 211.667,379.904 L200.167,379.904 C199.062,379.904 198.167,379.008 198.167,377.904 L198.167,376.404 C198.167,375.299 199.062,374.404 200.167,374.404 z" fill="#DFDFDF"/>
      <path d="M181.795,358.99 L189.927,367.121 C190.708,367.902 190.708,369.169 189.927,369.95 L188.866,371.01 C188.085,371.792 186.819,371.792 186.038,371.01 L177.906,362.879 C177.125,362.098 177.125,360.831 177.906,360.05 L178.967,358.99 C179.748,358.209 181.014,358.209 181.795,358.99 z" fill="#DFDFDF"/>
      <path d="M171.167,351.412 L171.167,339.912 C171.167,338.807 172.062,337.912 173.167,337.912 L174.667,337.912 C175.771,337.912 176.667,338.807 176.667,339.912 L176.667,351.412 C176.667,352.516 175.771,353.412 174.667,353.412 L173.167,353.412 C172.062,353.412 171.167,352.516 171.167,351.412 z" fill="#DFDFDF"/>
    </g>
    <path d="M149.417,367.919 L149.417,358.831 C149.417,357.958 150.312,357.25 151.417,357.25 L152.917,357.25 C154.021,357.25 154.917,357.958 154.917,358.831 L154.917,367.919 C154.917,368.792 154.021,369.5 152.917,369.5 L151.417,369.5 C150.312,369.5 149.417,368.792 149.417,367.919 z" fill="#DFDFDF"/>
    <path d="M138.667,367.919 L138.667,358.831 C138.667,357.958 139.562,357.25 140.667,357.25 L142.167,357.25 C143.271,357.25 144.167,357.958 144.167,358.831 L144.167,367.919 C144.167,368.792 143.271,369.5 142.167,369.5 L140.667,369.5 C139.562,369.5 138.667,368.792 138.667,367.919 z" fill="#DFDFDF"/>
    <path d="M122.417,357.25 L128.667,357.25 C129.771,357.25 130.667,358.145 130.667,359.25 L130.667,368.75 C130.667,369.855 129.771,370.75 128.667,370.75 L122.417,370.75 C121.312,370.75 120.417,369.855 120.417,368.75 L120.417,359.25 C120.417,358.145 121.312,357.25 122.417,357.25 z" fill="#DFDFDF"/>
    <path d="M67.667,343.25 L78.167,343.25 C79.271,343.25 80.167,344.145 80.167,345.25 L80.167,347.5 C80.167,348.605 79.271,349.5 78.167,349.5 L67.667,349.5 C66.562,349.5 65.667,348.605 65.667,347.5 L65.667,345.25 C65.667,344.145 66.562,343.25 67.667,343.25 z" fill="#DFDFDF"/>
    <path d="M67.667,360.875 L78.167,360.875 C79.271,360.875 80.167,361.77 80.167,362.875 L80.167,365.125 C80.167,366.23 79.271,367.125 78.167,367.125 L67.667,367.125 C66.562,367.125 65.667,366.23 65.667,365.125 L65.667,362.875 C65.667,361.77 66.562,360.875 67.667,360.875 z" fill="#DFDFDF"/>
    <path d="M86.667,351.831 L86.667,342.742 C86.667,341.869 87.562,341.162 88.667,341.162 L90.167,341.162 C91.271,341.162 92.167,341.869 92.167,342.742 L92.167,351.831 C92.167,352.704 91.271,353.412 90.167,353.412 L88.667,353.412 C87.562,353.412 86.667,352.704 86.667,351.831 z" fill="#DFDFDF"/>
    <path d="M55.16,351.831 L55.16,342.742 C55.16,341.869 56.056,341.162 57.16,341.162 L58.66,341.162 C59.765,341.162 60.66,341.869 60.66,342.742 L60.66,351.831 C60.66,352.704 59.765,353.412 58.66,353.412 L57.16,353.412 C56.056,353.412 55.16,352.704 55.16,351.831 z" fill="#DFDFDF"/>
    <g>
      <path d="M128.111,380.75 L159.167,380.75 C160.271,380.75 161.167,381.645 161.167,382.75 L161.167,406 C161.167,407.105 160.271,408 159.167,408 L128.111,408 C127.006,408 126.111,407.105 126.111,406 L126.111,382.75 C126.111,381.645 127.006,380.75 128.111,380.75 z" fill="#DFDFDF"/>
      <path d="M161.667,378.904 L164.917,378.904 C166.021,378.904 166.917,379.799 166.917,380.904 L166.917,382.25 C166.917,383.355 166.021,384.25 164.917,384.25 L161.667,384.25 C160.562,384.25 159.667,383.355 159.667,382.25 L159.667,380.904 C159.667,379.799 160.562,378.904 161.667,378.904 z" fill="#DFDFDF"/>
      <path d="M161.667,393.904 L164.917,393.904 C166.021,393.904 166.917,394.799 166.917,395.904 L166.917,397.25 C166.917,398.355 166.021,399.25 164.917,399.25 L161.667,399.25 C160.562,399.25 159.667,398.355 159.667,397.25 L159.667,395.904 C159.667,394.799 160.562,393.904 161.667,393.904 z" fill="#DFDFDF"/>
      <path d="M122.667,378.904 L125.917,378.904 C127.021,378.904 127.917,379.799 127.917,380.904 L127.917,382.25 C127.917,383.355 127.021,384.25 125.917,384.25 L122.667,384.25 C121.562,384.25 120.667,383.355 120.667,382.25 L120.667,380.904 C120.667,379.799 121.562,378.904 122.667,378.904 z" fill="#DFDFDF"/>
      <path d="M122.667,393.904 L125.917,393.904 C127.021,393.904 127.917,394.799 127.917,395.904 L127.917,397.25 C127.917,398.355 127.021,399.25 125.917,399.25 L122.667,399.25 C121.562,399.25 120.667,398.355 120.667,397.25 L120.667,395.904 C120.667,394.799 121.562,393.904 122.667,393.904 z" fill="#DFDFDF"/>
    </g>
    <path d="M130.667,384.75 L138.667,384.75 L138.667,388.5 L130.667,388.5 L130.667,384.75 z" fill="#959595"/>
    <path d="M150.667,384.75 L158.667,384.75 L158.667,388.5 L150.667,388.5 L150.667,384.75 z" fill="#959595"/>
    <path d="M130.667,395.25 L133.417,395.25 L133.417,403.25 L130.667,403.25 L130.667,395.25 z" fill="#959595"/>
    <path d="M154.667,395.25 L157.417,395.25 L157.417,403.25 L154.667,403.25 L154.667,395.25 z" fill="#959595"/>
    <path d="M62.66,16 L88.486,16 C89.59,16 90.486,16.895 90.486,18 L90.486,28.5 C90.486,29.605 89.59,30.5 88.486,30.5 L62.66,30.5 C61.556,30.5 60.66,29.605 60.66,28.5 L60.66,18 C60.66,16.895 61.556,16 62.66,16 z" fill="#DFDFDF"/>
    <path d="M78.292,6.5 L80.667,6.5 C81.771,6.5 82.667,7.395 82.667,8.5 L82.667,17 C82.667,18.105 81.771,19 80.667,19 L78.292,19 C77.187,19 76.292,18.105 76.292,17 L76.292,8.5 C76.292,7.395 77.187,6.5 78.292,6.5 z" fill="#DFDFDF"/>
    <path d="M56.66,137.267 L111.971,157.07 L112.493,163.667 L170.928,163.117 L170.928,156.52 L224.667,137.267 L143.797,126.833 L56.66,137.267 z" fill="#484848"/>
    <path d="M58.747,41.417 L222.58,41.417 C223.732,41.417 224.667,42.34 224.667,43.478 L224.667,135.206 C224.667,136.345 223.732,137.267 222.58,137.267 L58.747,137.267 C57.595,137.267 56.66,136.345 56.66,135.206 L56.66,43.478 C56.66,42.34 57.595,41.417 58.747,41.417 z" fill="#1E1E1E"/>
    <g>
      <path d="M141.163,336.617 C140.086,336.617 139.213,335.744 139.213,334.667 C139.213,333.59 140.086,332.716 141.163,332.716 C142.241,332.716 143.114,333.59 143.114,334.667 C143.114,335.744 142.241,336.617 141.163,336.617 z" fill="#8E8C8C"/>
      <path d="M141.163,330.234 C140.086,330.234 139.213,329.361 139.213,328.284 C139.213,327.207 140.086,326.333 141.163,326.333 C142.241,326.333 143.114,327.207 143.114,328.284 C143.114,329.361 142.241,330.234 141.163,330.234 z" fill="#8E8C8C"/>
      <path d="M141.163,343 C140.086,343 139.213,342.127 139.213,341.05 C139.213,339.972 140.086,339.099 141.163,339.099 C142.241,339.099 143.114,339.972 143.114,341.05 C143.114,342.127 142.241,343 141.163,343 z" fill="#8E8C8C"/>
      <path d="M147.546,336.617 C146.469,336.617 145.596,335.744 145.596,334.667 C145.596,333.59 146.469,332.716 147.546,332.716 C148.624,332.716 149.497,333.59 149.497,334.667 C149.497,335.744 148.624,336.617 147.546,336.617 z" fill="#8E8C8C"/>
      <path d="M134.78,336.617 C133.703,336.617 132.83,335.744 132.83,334.667 C132.83,333.59 133.703,332.716 134.78,332.716 C135.858,332.716 136.731,333.59 136.731,334.667 C136.731,335.744 135.858,336.617 134.78,336.617 z" fill="#8E8C8C"/>
      <path d="M145.419,332.362 C144.342,332.362 143.468,331.488 143.468,330.411 C143.468,329.334 144.342,328.461 145.419,328.461 C146.496,328.461 147.369,329.334 147.369,330.411 C147.369,331.488 146.496,332.362 145.419,332.362 z" fill="#8E8C8C"/>
      <path d="M136.908,332.362 C135.831,332.362 134.958,331.488 134.958,330.411 C134.958,329.334 135.831,328.461 136.908,328.461 C137.985,328.461 138.858,329.334 138.858,330.411 C138.858,331.488 137.985,332.362 136.908,332.362 z" fill="#8E8C8C"/>
      <path d="M136.908,340.872 C135.831,340.872 134.958,339.999 134.958,338.922 C134.958,337.845 135.831,336.972 136.908,336.972 C137.985,336.972 138.858,337.845 138.858,338.922 C138.858,339.999 137.985,340.872 136.908,340.872 z" fill="#8E8C8C"/>
      <path d="M145.419,340.872 C144.342,340.872 143.468,339.999 143.468,338.922 C143.468,337.845 144.342,336.972 145.419,336.972 C146.496,336.972 147.369,337.845 147.369,338.922 C147.369,339.999 146.496,340.872 145.419,340.872 z" fill="#8E8C8C"/>
    </g>
  </g>
  <g id="edges">
    <path d="M59.167,38.5 L222.667,38.5 C225.98,38.5 228.667,41.186 228.667,44.5 L228.667,166.5 C228.667,169.814 225.98,172.5 222.667,172.5 L59.167,172.5 C55.853,172.5 53.167,169.814 53.167,166.5 L53.167,44.5 C53.167,41.186 55.853,38.5 59.167,38.5 z" fill-opacity="0" stroke="#CECECE" stroke-width="1"/>
    <path d="M229.667,233 C243.75,233 255.167,244.417 255.167,258.5 C255.167,272.583 243.75,284 229.667,284 C221.688,283.722 216.69,281.42 211.108,275.839 L211.167,277 C211.167,291.083 199.75,302.5 185.667,302.5 C171.583,302.5 160.167,291.083 160.167,277 C160.167,262.917 171.583,251.5 185.667,251.5 C193.645,251.777 198.644,254.08 204.225,259.661 L204.167,258.5 C204.167,244.417 215.583,233 229.667,233 z" fill-opacity="0" stroke="#CECECE" stroke-width="1"/>
    <path d="M102.167,200 C108.794,200 114.167,205.373 114.167,212 L114.167,233 L133.667,233 C140.294,233 145.667,238.373 145.667,245 L145.667,277 C145.667,283.627 140.294,289 133.667,289 L114.167,289 L114.167,309.5 C114.167,316.127 108.794,321.5 102.167,321.5 L67.667,321.5 C61.039,321.5 55.667,316.127 55.667,309.5 L55.667,289 L34.167,289 C27.539,289 22.167,283.627 22.167,277 L22.167,245 C22.167,238.373 27.539,233 34.167,233 L55.667,233 L55.667,212 C55.667,205.373 61.039,200 67.667,200 L102.167,200 z" fill-opacity="0" stroke="#CECECE" stroke-width="1"/>
    <path d="M91.667,370 L197.167,370 C200.48,370 203.167,372.686 203.167,376 L203.167,400.5 C203.167,403.814 200.48,406.5 197.167,406.5 L91.667,406.5 C88.353,406.5 85.667,403.814 85.667,400.5 L85.667,376 C85.667,372.686 88.353,370 91.667,370 z" fill-opacity="0" stroke="#CECECE" stroke-width="1"/>
  </g>
</svg>
